<?xml version="1.0" encoding="UTF-8" standalone="no"?>
<!-- Created with Inkscape (http://www.inkscape.org/) -->

<svg
   width="93mm"
   height="93mm"
   viewBox="0 0 93 93"
   version="1.1"
   id="svg1"
   xml:space="preserve"
   xmlns:xlink="http://www.w3.org/1999/xlink"
   xmlns="http://www.w3.org/2000/svg"
   xmlns:svg="http://www.w3.org/2000/svg"><defs
     id="defs1"><linearGradient
       id="linearGradient43"><stop
         style="stop-color:#f34700;stop-opacity:1;"
         offset="0.10910685"
         id="stop43" /><stop
         style="stop-color:#ffa319;stop-opacity:1;"
         offset="0.74449438"
         id="stop44" /></linearGradient><linearGradient
       id="linearGradient6"><stop
         style="stop-color:#2a3538;stop-opacity:1;"
         offset="0.26454517"
         id="stop7" /><stop
         style="stop-color:#151f27;stop-opacity:1;"
         offset="0.71323341"
         id="stop8" /><stop
         style="stop-color:#0e191d;stop-opacity:1"
         offset="0.9226014"
         id="stop6" /></linearGradient><linearGradient
       xlink:href="#linearGradient6"
       id="linearGradient7"
       x1="100.95667"
       y1="74.531143"
       x2="100.95667"
       y2="147.6814"
       gradientUnits="userSpaceOnUse"
       spreadMethod="reflect"
       gradientTransform="matrix(1.4490229,0,0,1.4490229,-100.35626,-122.14401)" /><linearGradient
       xlink:href="#linearGradient43"
       id="linearGradient48"
       x1="101.19335"
       y1="143.82382"
       x2="101.55524"
       y2="86.619408"
       gradientUnits="userSpaceOnUse" /><filter
       style="color-interpolation-filters:sRGB"
       id="filter20"
       x="-0.078126365"
       y="-0.082680033"
       width="1.221358"
       height="1.2342601"><feFlood
         result="flood"
         in="SourceGraphic"
         flood-opacity="0.164706"
         flood-color="rgb(0,0,0)"
         id="feFlood19" /><feGaussianBlur
         result="blur"
         in="SourceGraphic"
         stdDeviation="1.500000"
         id="feGaussianBlur19" /><feOffset
         result="offset"
         in="blur"
         dx="3.000000"
         dy="3.000000"
         id="feOffset19" /><feComposite
         result="comp1"
         operator="in"
         in="flood"
         in2="offset"
         id="feComposite19" /><feComposite
         result="comp2"
         operator="over"
         in="SourceGraphic"
         in2="comp1"
         id="feComposite20" /></filter></defs><g
     id="layer1"><circle
       style="display:inline;fill:url(#linearGradient7);fill-rule:evenodd;stroke:#ababab;stroke-width:1.5;stroke-linejoin:round;stroke-dasharray:none;stroke-opacity:1;paint-order:fill markers stroke"
       id="path2"
       cx="46.5"
       cy="46.538765"
       r="45.293285" /><path
       id="path1"
       style="display:inline;fill:url(#linearGradient48);fill-opacity:1;stroke:none;stroke-width:0.3;stroke-dasharray:none;stroke-opacity:1;filter:url(#filter20)"
       d="m 91.897919,96.552704 a 4.4055301,4.4055301 132.32962 0 0 -4.195493,4.605996 v 30.14856 a 5.4565591,5.4565591 45 0 0 5.456559,5.45656 h 18.125345 a 4.2019655,4.2019655 135 0 0 4.20197,-4.20197 4.1553621,4.1553621 43.392329 0 0 -4.26356,-4.03077 l -13.032042,-0.0411 a 2.2234781,2.2234781 45.173269 0 1 -2.216452,-2.2299 l 0.07388,-25.54512 a 4.1502284,4.1502284 45.082857 0 0 -4.150211,-4.162236 z m 30.405771,11.513526 c 1.23646,0 2.23188,0.99542 2.23188,2.23189 v 14.79056 c 0,1.23646 -0.99542,2.23189 -2.23188,2.23189 -1.23647,0 -2.23189,-0.99543 -2.23189,-2.23189 v -14.79056 c 0,-1.23647 0.99542,-2.23189 2.23189,-2.23189 z m -9.08089,-7.15676 c 1.23646,0 2.23189,0.99542 2.23189,2.23189 v 18.82321 c 0,1.23646 -0.99543,2.23189 -2.23189,2.23189 -1.23647,0 -2.23189,-0.99543 -2.23189,-2.23189 v -18.82321 c 0,-1.23647 0.99542,-2.23189 2.23189,-2.23189 z m -9.12101,-7.686997 c 1.23647,0 2.23189,1.01483 2.23189,2.275403 v 26.031894 c 0,1.26057 -0.99542,2.2754 -2.23189,2.2754 -1.23647,0 -2.23189,-1.01483 -2.23189,-2.2754 V 95.497876 c 0,-1.260573 0.99542,-2.275403 2.23189,-2.275403 z M 80.688262,107.05148 c 1.236465,0 2.231886,1.07754 2.231886,2.416 v 12.60611 c 0,1.33846 -0.995421,2.416 -2.231886,2.416 -1.236466,0 -2.231887,-1.07754 -2.231887,-2.416 v -12.60611 c 0,-1.33846 0.995421,-2.416 2.231887,-2.416 z"
       transform="matrix(1.4490229,0,0,1.4490229,-100.56999,-122.14401)" /></g></svg>
